<svg width="1200" height="800" viewBox="0 0 1200 800" fill="none" xmlns="http://www.w3.org/2000/svg">
  <rect width="1200" height="800" rx="48" fill="#101723"/>
  <path d="M0 200C186 115 325 115 490 200C655 285 785 285 1200 120V800H0V200Z" fill="#182433"/>
  <path d="M0 304C207 385 366 396 537 308C708 220 876 220 1200 372V800H0V304Z" fill="#1F3144"/>
  <rect x="134" y="124" width="932" height="552" rx="34" fill="rgba(255,255,255,0.04)" stroke="rgba(255,255,255,0.1)"/>
  <rect x="184" y="188" width="264" height="24" rx="12" fill="#F47423"/>
  <rect x="184" y="242" width="392" height="18" rx="9" fill="#E5EEF8" fill-opacity="0.76"/>
  <rect x="184" y="286" width="316" height="18" rx="9" fill="#E5EEF8" fill-opacity="0.26"/>
  <rect x="184" y="360" width="824" height="78" rx="24" fill="#141F2D" stroke="rgba(255,255,255,0.08)"/>
  <circle cx="236" cy="399" r="24" fill="#F47423"/>
  <rect x="278" y="384" width="244" height="12" rx="6" fill="#EEF3FA"/>
  <rect x="278" y="410" width="180" height="12" rx="6" fill="#EEF3FA" fill-opacity="0.35"/>
  <rect x="184" y="464" width="824" height="78" rx="24" fill="#1E3042"/>
  <circle cx="236" cy="503" r="24" fill="#7EB1FF"/>
  <rect x="278" y="488" width="244" height="12" rx="6" fill="#EEF3FA"/>
  <rect x="278" y="514" width="180" height="12" rx="6" fill="#EEF3FA" fill-opacity="0.35"/>
</svg>
